<?xml version="1.0" encoding="UTF-8" standalone="no"?>
<svg
   xmlns:dc="http://purl.org/dc/elements/1.1/"
   xmlns:cc="http://creativecommons.org/ns#"
   xmlns:rdf="http://www.w3.org/1999/02/22-rdf-syntax-ns#"
   xmlns:svg="http://www.w3.org/2000/svg"
   xmlns="http://www.w3.org/2000/svg"
   xmlns:sodipodi="http://sodipodi.sourceforge.net/DTD/sodipodi-0.dtd"
   xmlns:inkscape="http://www.inkscape.org/namespaces/inkscape"
   width="24"
   height="24"
   viewBox="0 0 24 24"
   fill="none"
   stroke="currentColor"
   stroke-width="2"
   stroke-linecap="round"
   stroke-linejoin="round"
   class="feather feather-coffee"
   version="1.1"
   id="svg12"
   sodipodi:docname="coffee-hot.svg"
   inkscape:version="1.0.2 (e86c870879, 2021-01-15)">
  <metadata
     id="metadata18">
    <rdf:RDF>
      <cc:Work
         rdf:about="">
        <dc:format>image/svg+xml</dc:format>
        <dc:type
           rdf:resource="http://purl.org/dc/dcmitype/StillImage" />
      </cc:Work>
    </rdf:RDF>
  </metadata>
  <defs
     id="defs16" />
  <sodipodi:namedview
     pagecolor="#ffffff"
     bordercolor="#666666"
     borderopacity="1"
     objecttolerance="10"
     gridtolerance="10"
     guidetolerance="10"
     inkscape:pageopacity="0"
     inkscape:pageshadow="2"
     inkscape:window-width="1226"
     inkscape:window-height="976"
     id="namedview14"
     showgrid="false"
     inkscape:zoom="16.333333"
     inkscape:cx="3.1017228"
     inkscape:cy="12.997935"
     inkscape:window-x="1290"
     inkscape:window-y="60"
     inkscape:window-maximized="0"
     inkscape:current-layer="svg12" />
  <path
     d="M18 8h1a4 4 0 0 1 0 8h-1"
     id="path2" />
  <path
     d="M2 8h16v9a4 4 0 0 1-4 4H6a4 4 0 0 1-4-4V8z"
     id="path4" />
  <line
     x1="6"
     y1="1"
     x2="6"
     y2="4"
     id="line6" />
  <line
     x1="10"
     y1="1"
     x2="10"
     y2="4"
     id="line8" />
  <line
     x1="14"
     y1="1"
     x2="14"
     y2="4"
     id="line10" />
  <path
     style="fill:#ffffff;stroke-width:0.122449"
     d="M 5.4894779,21.936739 C 3.1775135,21.651807 1.4108601,19.937501 1.0812647,17.659144 0.99729999,17.078731 1.0010957,7.9131808 1.0853929,7.6906961 1.1213094,7.5959019 1.2108503,7.4537355 1.2843725,7.3747707 1.5946045,7.0415736 1.0420009,7.060156 10.68826,7.0585459 c 8.002953,-0.00134 8.986741,0.00885 9.374693,0.097091 1.338124,0.30435 2.525777,1.171882 3.220579,2.3525024 0.480334,0.8161917 0.744446,1.9229567 0.6714,2.8135117 -0.202764,2.472028 -2.086264,4.378376 -4.574634,4.630128 l -0.405098,0.04098 -0.04138,0.496226 c -0.08511,1.020524 -0.570795,2.083126 -1.310583,2.86734 -0.703051,0.745271 -1.4525,1.195634 -2.454569,1.475013 -0.451613,0.12591 -0.590897,0.12997 -4.873065,0.142029 -2.4244895,0.0068 -4.5872446,-0.0097 -4.8061221,-0.03663 z m 9.5050241,-2.063687 c 1.158838,-0.440452 1.890252,-1.388079 2.004465,-2.597006 0.02983,-0.315716 0.04908,-2.309744 0.04278,-4.431172 l -0.01145,-3.8571432 -7.02551,-0.015564 -7.0255102,-0.015564 7.267e-4,4.2400542 c 7.892e-4,4.606027 -0.00336,4.543541 0.3476296,5.237256 0.2213711,0.437532 0.7609581,0.975371 1.2286056,1.224624 0.709362,0.378086 0.6379768,0.373482 5.5863033,0.360288 4.46435,-0.0119 4.502788,-0.01306 4.851963,-0.145772 z m 4.788754,-4.948561 c 1.064033,-0.277145 1.957151,-1.210981 2.178661,-2.27799 0.09635,-0.464123 0.0444,-1.250588 -0.111125,-1.682213 C 21.598094,10.262976 21.013872,9.616973 20.314619,9.2656683 20.051682,9.1335684 19.365159,8.960254 19.096621,8.9581816 l -0.137755,-0.00106 v 3.0306124 3.030612 H 19.1909 c 0.12762,0 0.394179,-0.04223 0.592356,-0.09385 z"
     id="path20" />
  <path
     style="fill:#ffffff;stroke-width:0.122449"
     d="M 5.6731827,4.9087439 C 5.5890163,4.8751821 5.4555312,4.7873877 5.3765492,4.713645 5.0693216,4.4267978 5.0609064,4.3677262 5.0609064,2.4979349 c 0,-1.91259935 0.00638,-1.95217662 0.3630233,-2.25227289 0.2806933,-0.23618783 0.6196139,-0.26956147 0.9671389,-0.0952345 0.5479579,0.27486888 0.5371848,0.22779011 0.5371848,2.34750739 0,2.1121942 0.00928,2.0705409 -0.5216591,2.3418367 -0.2888006,0.1475698 -0.4890714,0.1664039 -0.7334116,0.068972 z"
     id="path22" />
  <path
     style="fill:#ffffff;stroke-width:0.122449"
     d="M 9.5951029,4.8435924 C 9.0613069,4.5656762 9.0711105,4.6093597 9.0711105,2.5087514 V 0.66120017 L 9.2185302,0.45450279 c 0.31516,-0.44188643 0.9616878,-0.54139335 1.3569038,-0.20884078 0.373897,0.31461371 0.391633,0.39928801 0.414047,1.97676269 0.01124,0.7913265 0.0026,1.582028 -0.01931,1.7571145 -0.09678,0.7749752 -0.753523,1.1876556 -1.3750691,0.8640532 z"
     id="path24" />
  <path
     style="fill:#ffffff;stroke-width:0.122449"
     d="M 13.568777,4.8397716 C 13.369213,4.7391373 13.25848,4.6284037 13.157845,4.4288396 13.025086,4.165569 13.02009,4.0954262 13.02009,2.4945916 c 0,-1.6158629 0.0038,-1.66832696 0.140984,-1.92767577 0.153983,-0.29118547 0.547453,-0.54857281 0.838608,-0.54857281 0.291155,0 0.684625,0.25738734 0.838608,0.54857281 0.137147,0.25934881 0.140984,0.31181287 0.140984,1.92767577 0,1.6008346 -0.005,1.6709774 -0.137755,1.934248 -0.148288,0.2940636 -0.53895,0.5486871 -0.841837,0.5486871 -0.08675,0 -0.280657,-0.06199 -0.430905,-0.1377551 z"
     id="path26" />
</svg>
