<?xml version="1.0" encoding="UTF-8" standalone="no"?>
<svg
   xmlns:dc="http://purl.org/dc/elements/1.1/"
   xmlns:cc="http://creativecommons.org/ns#"
   xmlns:rdf="http://www.w3.org/1999/02/22-rdf-syntax-ns#"
   xmlns:svg="http://www.w3.org/2000/svg"
   xmlns="http://www.w3.org/2000/svg"
   xmlns:sodipodi="http://sodipodi.sourceforge.net/DTD/sodipodi-0.dtd"
   xmlns:inkscape="http://www.inkscape.org/namespaces/inkscape"
   width="24"
   height="24"
   viewBox="0 0 24 24"
   fill="none"
   stroke="currentColor"
   stroke-width="2"
   stroke-linecap="round"
   stroke-linejoin="round"
   class="feather feather-coffee"
   version="1.1"
   id="svg12"
   sodipodi:docname="coffee.svg"
   inkscape:version="1.0.2 (e86c870879, 2021-01-15)">
  <metadata
     id="metadata18">
    <rdf:RDF>
      <cc:Work
         rdf:about="">
        <dc:format>image/svg+xml</dc:format>
        <dc:type
           rdf:resource="http://purl.org/dc/dcmitype/StillImage" />
        <dc:title />
      </cc:Work>
    </rdf:RDF>
  </metadata>
  <defs
     id="defs16" />
  <sodipodi:namedview
     pagecolor="#ffffff"
     bordercolor="#666666"
     borderopacity="1"
     objecttolerance="10"
     gridtolerance="10"
     guidetolerance="10"
     inkscape:pageopacity="0"
     inkscape:pageshadow="2"
     inkscape:window-width="1226"
     inkscape:window-height="976"
     id="namedview14"
     showgrid="false"
     inkscape:zoom="8.1666667"
     inkscape:cx="-0.2880246"
     inkscape:cy="3.3487277"
     inkscape:window-x="1290"
     inkscape:window-y="60"
     inkscape:window-maximized="0"
     inkscape:current-layer="svg12"
     inkscape:document-rotation="0" />
  <path
     d="M18 8h1a4 4 0 0 1 0 8h-1"
     id="path2" />
  <path
     d="M2 8h16v9a4 4 0 0 1-4 4H6a4 4 0 0 1-4-4V8z"
     id="path4" />
  <path
     style="fill:#ffffff;stroke-width:0.244898"
     d="M 4.3650366,21.630584 C 2.7487982,21.015253 1.6660313,19.820259 1.2249666,18.165054 1.1020286,17.703699 1.0614627,16.336776 1.0603675,12.618672 l -0.00145,-4.9341373 0.3035332,-0.3035332 0.3035332,-0.3035332 9.2780991,0.033589 9.278099,0.033589 0.829624,0.3929735 c 1.477632,0.699919 2.502249,2.0452632 2.807411,3.6861902 0.477415,2.567168 -1.539765,5.301809 -4.152627,5.629614 l -0.694577,0.08714 -0.149531,0.810454 c -0.34318,1.86003 -1.492971,3.227456 -3.267342,3.885793 -0.682667,0.253288 -0.889378,0.262703 -5.6326527,0.256556 -4.6931711,-0.0061 -4.9555462,-0.0184 -5.5974474,-0.262783 z m 10.6396174,-1.7465 c 0.747015,-0.263563 1.276041,-0.718668 1.677367,-1.44299 l 0.356485,-0.643387 0.0376,-4.438775 0.0376,-4.4387758 H 9.9976896 2.8816769 l 0.037598,4.4387758 0.037598,4.438775 0.3564839,0.643387 c 0.390841,0.705396 0.9267908,1.176534 1.6337403,1.436176 0.6922321,0.254236 9.3396819,0.260094 10.0575569,0.0068 z m 5.642859,-5.305519 c 0.80981,-0.500199 1.270915,-1.317609 1.329652,-2.357103 0.05761,-1.019614 -0.120515,-1.593805 -0.689983,-2.2241374 -0.507571,-0.561821 -1.143638,-0.9154488 -1.849684,-1.02835 l -0.501033,-0.080118 v 3.0935184 3.093518 l 0.581633,-0.07949 c 0.319898,-0.04372 0.828134,-0.231746 1.129415,-0.417838 z"
     id="path8" />
</svg>
